<?xml version="1.0" standalone="no"?>
<!DOCTYPE svg PUBLIC "-//W3C//DTD SVG 20010904//EN"
 "http://www.w3.org/TR/2001/REC-SVG-20010904/DTD/svg10.dtd">
<svg version="1.0" xmlns="http://www.w3.org/2000/svg"
 width="152.000000pt" height="79.000000pt" viewBox="0 0 152.000000 79.000000"
 preserveAspectRatio="xMidYMid meet">

<g transform="translate(0.000000,79.000000) scale(0.100000,-0.100000)"
fill="#000000" stroke="none">
<path d="M0 395 l0 -395 760 0 760 0 0 395 0 395 -760 0 -760 0 0 -395z m493
121 c19 -13 46 -27 58 -31 27 -8 59 -34 59 -47 0 -5 -12 0 -26 11 -15 12 -41
21 -61 21 -19 0 -32 4 -28 10 11 19 -43 42 -90 38 -43 -3 -59 5 -32 15 32 13
86 6 120 -17z m294 -48 c-2 -13 -4 -5 -4 17 -1 22 1 32 4 23 2 -10 2 -28 0
-40z m182 35 c24 -20 45 -80 30 -88 -5 -4 -9 1 -9 9 0 83 -110 110 -147 36
-12 -24 -13 -24 -13 -3 0 51 94 82 139 46z m204 -44 l22 0 -22 -9 c-18 -7 -23
-18 -25 -47 l-1 -38 -4 35 c-2 19 -11 41 -20 48 -16 11 -15 12 0 12 9 0 18 8
18 18 1 16 2 16 6 0 2 -10 14 -18 26 -19z m-123 -11 c0 -9 3 -9 12 0 7 7 18
12 26 12 8 0 0 -13 -18 -30 -18 -16 -34 -30 -36 -30 -2 0 -4 14 -4 30 0 17 5
30 10 30 6 0 10 -5 10 -12z"/>
</g>
</svg>
